REM MD5 85e462e48fd5416f96ed0a899cbf1ac5
FILE "Super Hero Sakusen (Japan) (Demo).bin" BINARY
  TRACK 01 MODE2/2352
    INDEX 01 00:00:00
  TRACK 02 AUDIO
    INDEX 00 21:56:48
    INDEX 01 21:58:48
  TRACK 03 AUDIO
    INDEX 00 22:39:07
    INDEX 01 22:41:07
REM LEADOUT 25:39:32
